<!--
  Genie by Smashing Stocks from Noun Project
  https://thenounproject.com/browse/icons/term/genie/
  License: CC BY 3.0
-->
<svg xmlns="http://www.w3.org/2000/svg" xmlns:xlink="http://www.w3.org/1999/xlink" width="1080" zoomAndPan="magnify"
    viewBox="0 0 810 809.999993" height="1080" preserveAspectRatio="xMidYMid meet" version="1.0">
    <path fill="#ffffff"
        d="M 613.761719 392.777344 C 607.765625 348.949219 571.964844 321.773438 510.605469 313.253906 C 518.949219 297.789062 524.136719 280.433594 525.402344 261.957031 C 561.65625 236.917969 583.082031 189.375 575.121094 138.214844 C 572.703125 120.894531 567.09375 102.171875 558.570312 82.78125 C 542.230469 42.632812 457.480469 -4.773438 357.519531 11.109375 C 325.925781 16.230469 289.25 28.21875 264.460938 48.242188 C 242.160156 65.5625 235.289062 82.148438 235.113281 82.570312 C 220.945312 114.6875 216.28125 142.914062 216.949219 162.410156 C 217.964844 223.035156 256.539062 253.996094 268.179688 261.992188 C 269.546875 280.085938 274.628906 297.511719 283.148438 313.257812 C 221.71875 321.742188 185.847656 348.953125 179.851562 392.816406 C 168.59375 474.480469 220.734375 509.195312 239.074219 518.761719 C 233.742188 552.777344 219.367188 712.417969 400.40625 792.265625 C 410.785156 796.71875 421.757812 786.96875 418.601562 776.308594 C 393.953125 689.914062 465.167969 658.808594 466.183594 657.195312 C 522.566406 632.265625 547.359375 579.105469 553.109375 519.53125 C 570.007812 510.976562 625.339844 476.578125 613.769531 392.777344 Z M 424.171875 346.355469 L 402.1875 354.277344 C 399.835938 355.191406 399.941406 354.136719 377.464844 346.355469 C 374.800781 345.40625 371.996094 347.371094 371.996094 350.175781 L 371.996094 362.167969 C 351.238281 357.539062 332.164062 347.195312 316.699219 331.730469 C 272.660156 287.691406 285.808594 235.792969 283.460938 219.320312 L 376.09375 159.46875 C 385.914062 179.910156 407.617188 179.945312 417.4375 159.46875 L 510.109375 219.320312 C 510.109375 247.265625 510.28125 253.648438 509.792969 256.769531 C 507.722656 306.070312 474.554688 346.675781 429.636719 360.203125 L 429.636719 350.175781 C 429.636719 347.371094 426.832031 345.371094 424.167969 346.355469 Z M 526.132812 240.738281 C 525.117188 218.191406 528.621094 212.160156 522.488281 208.199219 L 421.394531 142.910156 C 422.410156 120.503906 406.949219 100.238281 388.925781 108.582031 C 387.171875 106.09375 391.484375 109.773438 295.300781 47.363281 C 314.832031 37.226562 337.308594 30.8125 357.085938 27.375 L 560.488281 158.796875 C 560.699219 192.738281 548.007812 220.546875 526.125 240.742188 Z M 543.804688 88.984375 C 551.519531 106.550781 556.535156 123.207031 558.917969 138.667969 L 382.164062 24.464844 C 465.792969 19.027344 531.675781 59.386719 543.8125 88.980469 Z M 249.832031 88.808594 C 251.339844 87.160156 255.019531 74.082031 280.125 56.65625 L 326.832031 86.84375 L 233.59375 147.15625 C 235.382812 128.886719 240.746094 109.324219 249.828125 88.808594 Z M 233.316406 166.40625 C 343.734375 94.488281 338.644531 99.433594 340.683594 95.75 L 377.535156 119.558594 C 373.710938 126.152344 371.785156 133.792969 372.203125 142.910156 L 271.113281 208.199219 C 264.941406 212.164062 268.414062 218.683594 267.464844 240.84375 C 254.386719 228.886719 235.382812 204.800781 233.3125 166.402344 Z M 542.683594 506.589844 C 528.027344 509.148438 444.257812 521.667969 420.660156 482.152344 C 426.132812 473.558594 442.4375 454.484375 482.058594 448.558594 C 486.441406 447.894531 489.457031 443.824219 488.789062 439.441406 C 488.125 435.058594 484.054688 432.078125 479.671875 432.710938 C 426.621094 440.671875 408.5625 469.808594 404.320312 478.539062 C 403.269531 480.75 403.234375 483.273438 404.285156 485.480469 C 424.414062 528.226562 489.386719 530.292969 536.375 523.804688 C 530.238281 574.195312 507.164062 623.175781 460.949219 641.933594 C 459.339844 642.390625 457.339844 643.6875 454.289062 645.511719 C 389.351562 683.871094 394.539062 745.445312 401.796875 775.246094 C 237.242188 699.753906 248.921875 557.882812 254.460938 523.453125 C 301.832031 530.5 368.667969 529.0625 389.214844 485.476562 C 390.230469 483.269531 390.230469 480.742188 389.144531 478.535156 C 384.867188 469.804688 366.84375 440.699219 313.792969 432.707031 C 309.40625 432.074219 305.339844 435.054688 304.675781 439.4375 C 304.007812 443.820312 307.023438 447.886719 311.40625 448.554688 C 351.03125 454.515625 367.371094 473.589844 372.839844 482.179688 C 345.523438 527.972656 235.949219 504.304688 250.921875 506.585938 C 248.1875 505.535156 184.019531 480.148438 195.765625 394.972656 C 202.21875 347.917969 250.957031 332.488281 292.613281 327.96875 C 313.230469 356.089844 342.226562 373.128906 373.296875 378.84375 C 375.996094 395.183594 384.164062 410.332031 397.066406 421.027344 C 399.242188 422.816406 402.539062 422.816406 404.710938 421.027344 C 418.070312 409.804688 426.347656 393.992188 428.695312 376.988281 C 458.429688 369.519531 484.0625 351.914062 501.523438 328.003906 C 543.074219 332.5625 591.566406 348.058594 597.984375 394.972656 C 605.90625 453.214844 577.261719 492.90625 542.6875 506.585938 Z M 542.683594 506.589844 "
        fill-opacity="1" fill-rule="nonzero" />
    <path fill="#ffffff"
        d="M 395.839844 279.972656 C 401.558594 279.972656 406.183594 275.34375 406.183594 269.628906 L 406.183594 252.796875 C 406.183594 247.152344 401.625 242.457031 395.839844 242.457031 C 390.125 242.457031 385.496094 247.082031 385.496094 252.796875 L 385.496094 269.628906 C 385.496094 275.34375 390.125 279.972656 395.839844 279.972656 Z M 395.839844 279.972656 "
        fill-opacity="1" fill-rule="nonzero" />
    <path fill="#ffffff"
        d="M 338.617188 209.320312 C 326.765625 209.320312 316.84375 217.664062 314.421875 228.816406 L 362.8125 228.816406 C 360.390625 217.664062 350.46875 209.320312 338.617188 209.320312 Z M 338.617188 209.320312 "
        fill-opacity="1" fill-rule="nonzero" />
    <path fill="#ffffff"
        d="M 454.949219 209.320312 C 443.097656 209.320312 433.175781 217.664062 430.757812 228.816406 L 479.144531 228.816406 C 476.726562 217.664062 466.800781 209.320312 454.949219 209.320312 Z M 454.949219 209.320312 "
        fill-opacity="1" fill-rule="nonzero" />
    <path fill="#ffffff"
        d="M 441.484375 302.980469 C 442.574219 297.964844 438.75 293.265625 433.667969 293.265625 L 359.929688 293.265625 C 354.84375 293.265625 351.023438 297.964844 352.109375 302.980469 C 356.667969 323.84375 375.460938 338.988281 396.816406 338.988281 C 418.132812 338.988281 436.929688 323.84375 441.488281 302.980469 Z M 396.78125 322.964844 C 386.507812 322.964844 377.144531 317.566406 371.777344 309.292969 L 421.746094 309.292969 C 416.378906 317.566406 407.054688 322.964844 396.78125 322.964844 Z M 396.78125 322.964844 "
        fill-opacity="1" fill-rule="nonzero" />
</svg>