<!--
  Genie Lamp by Oleksandr Panasovskyi from Noun Project
  https://thenounproject.com/browse/icons/term/genie-lamp/
  License: CC BY 3.0
-->
<svg xmlns="http://www.w3.org/2000/svg" viewBox="1833.56 1540.57 46330 46920">
  <defs>
    <linearGradient id="gold-gradient" x1="0%" y1="0%" x2="100%" y2="100%">
      <stop offset="0%" stop-color="#FFD700" />
      <stop offset="50%" stop-color="#FDB931" />
      <stop offset="100%" stop-color="#FFD700" />
    </linearGradient>
  </defs>
  <path
    d="M 6400 32233 c 692 13 1357 194 1956 541 c 508 294 966 707 1350 1236 c 86 -977 -203 -1822 -665 -2366 c -203 -239 -437 -417 -684 -519 c -236 -97 -486 -125 -732 -69 c -437 100 -874 467 -1225 1177 z m 1674 1028 c -628 -363 -1343 -514 -2086 -449 l -449 39 l 161 -421 c 451 -1173 1114 -1766 1800 -1923 c 363 -83 728 -43 1071 98 c 331 137 639 368 900 675 c 674 794 1042 2111 656 3575 l -185 699 l -337 -639 c -394 -749 -923 -1302 -1531 -1654 z m 37539 -4272 c 816 -57 1337 -38 1705 80 c 421 135 637 378 819 757 l 16 34 l 7 38 c 56 309 -254 599 -694 848 c -624 353 -1554 686 -1764 753 c -2374 762 -3832 1327 -5159 2124 c -1328 797 -2540 1835 -4421 3539 l 1 0 c -1877 1814 -3546 2920 -5370 3677 c -1602 664 -3315 1053 -5392 1413 c 532 277 1060 587 1574 978 c 772 587 1505 1350 2159 2447 l 89 150 l -94 146 c -334 521 -890 956 -1600 1308 c -1677 832 -4256 1219 -6757 1175 c -2507 -44 -4951 -521 -6346 -1416 c -488 -312 -855 -679 -1064 -1101 l -68 -137 l 79 -132 c 434 -729 1132 -1529 1970 -2246 c 556 -475 1176 -916 1823 -1276 c -1099 -215 -2160 -485 -3151 -909 c -1256 -536 -2391 -1314 -3333 -2526 c -353 -455 -560 -813 -726 -1101 c -78 139 -164 262 -309 408 c -383 387 -939 710 -1534 874 c -541 149 -1120 167 -1642 -13 c -1485 -516 -1484 -1425 -1172 -2326 c 90 -257 203 -504 311 -739 c 102 -223 200 -435 258 -620 c 68 -218 66 -383 -122 -443 c -284 -89 -532 -160 -773 -230 c -1525 -440 -2781 -803 -3034 -2286 c -243 -1423 209 -2784 1053 -3883 c 914 -1190 2292 -2075 3740 -2397 c 537 -120 1146 -173 1727 -131 c 527 38 1037 155 1461 372 c 498 255 824 596 1008 1053 c 176 438 212 972 137 1629 c -22 188 -51 379 -80 574 c -50 334 -103 680 -114 965 c -9 213 16 369 66 477 c 49 105 131 161 231 180 c 141 26 320 -1 512 -63 c 438 -140 917 -445 1232 -718 c 57 -49 56 -224 54 -396 c -2 -298 -5 -591 243 -798 l 28 -23 l 4679 -2387 c -4 -471 -10 -479 -50 -525 c -67 -77 -166 -193 -310 -483 c -85 -173 -123 -353 -121 -537 c 5 -438 239 -882 593 -1270 c 334 -368 780 -693 1234 -917 c 416 -205 845 -328 1213 -324 c 95 1 188 8 279 21 c 657 93 1336 482 1846 963 c 525 496 883 1104 877 1616 c 0 50 -3 96 -10 139 c -63 447 -216 552 -372 657 c -77 53 -155 106 -169 614 l 5389 2510 l -4 185 c -18 736 301 1400 796 1922 c 563 596 1351 1007 2138 1140 c 2812 473 5192 -950 7528 -2346 c 330 -197 658 -394 965 -572 l 4 -2 c 268 -148 523 -306 775 -462 c 990 -611 1915 -1182 3140 -1004 l 40 6 l 36 16 c 74 33 145 97 245 186 c 284 251 874 776 1675 765 l 0 0 z m 1533 616 c -292 -94 -749 -106 -1493 -53 l -14 0 c -1031 21 -1737 -607 -2076 -907 c -40 -36 -69 -64 -85 -79 c -999 -121 -1824 388 -2706 933 c -258 159 -520 321 -792 472 l 0 1 c -334 193 -645 380 -958 566 c -2424 1450 -4895 2927 -7910 2419 c -903 -152 -1807 -624 -2453 -1307 c -550 -580 -917 -1314 -949 -2136 l -5389 -2510 l 0 -180 c 0 -973 211 -1117 419 -1258 c 51 -35 101 -69 130 -269 c 3 -24 5 -47 5 -67 c 4 -350 -282 -805 -701 -1201 c -434 -410 -1001 -739 -1537 -815 c -72 -10 -141 -16 -206 -17 c -277 -3 -618 98 -960 267 c -393 194 -779 475 -1066 791 c -268 294 -445 610 -448 895 c -1 97 19 192 64 283 c 112 228 183 310 231 365 c 170 197 183 211 187 1064 l 1 174 l -4923 2512 c -31 54 -30 200 -28 347 c 2 301 5 606 -249 826 c -360 312 -914 663 -1430 828 c -276 88 -548 125 -785 80 c -278 -53 -504 -205 -639 -494 c -87 -186 -130 -428 -118 -738 c 14 -330 67 -684 119 -1027 c 30 -195 59 -387 78 -554 c 65 -565 39 -1010 -100 -1355 c -131 -326 -371 -573 -741 -763 c -351 -179 -787 -277 -1245 -310 c -529 -38 -1081 10 -1566 118 c -1320 294 -2578 1102 -3413 2190 c -754 982 -1160 2191 -946 3447 c 194 1135 1297 1453 2636 1840 c 265 76 538 155 783 232 c 615 194 661 612 493 1149 c -67 211 -173 442 -285 686 c -103 225 -211 461 -290 688 c -216 622 -215 1251 823 1611 c 407 141 871 124 1311 2 c 500 -137 965 -406 1283 -728 c 159 -160 228 -297 331 -502 c 38 -76 79 -158 106 -209 l 210 -400 l 266 366 c 99 135 184 282 283 453 c 153 267 345 600 684 1036 c 877 1129 1935 1854 3107 2354 c 1187 508 2499 789 3859 1024 l 923 160 l -858 376 c -868 380 -1715 943 -2450 1571 c -739 632 -1360 1328 -1769 1969 c 171 273 442 522 790 745 c 1307 838 3639 1286 6051 1328 c 2419 42 4902 -325 6499 -1118 c 551 -273 991 -596 1276 -966 c -588 -946 -1239 -1615 -1920 -2132 c -724 -551 -1491 -938 -2258 -1306 l -805 -387 l 881 -144 c 2431 -398 4356 -790 6123 -1523 c 1760 -729 3374 -1801 5195 -3562 l 7 -5 c 1912 -1733 3147 -2789 4515 -3611 c 1371 -823 2860 -1401 5276 -2176 c 198 -64 1075 -377 1658 -708 c 210 -119 374 -216 411 -249 c -107 -201 -233 -332 -453 -402 z m -34656 1639 c -1078 609 -1716 1389 -2052 2366 c -345 1001 -383 2219 -259 3676 l -562 47 c -131 -1530 -87 -2821 287 -3906 c 382 -1107 1099 -1989 2310 -2672 l 276 489 z m 5842 -4602 c 456 358 1226 513 1999 506 c 847 -8 1678 -207 2095 -543 l 353 438 c -513 414 -1480 658 -2444 667 c -888 8 -1789 -183 -2351 -625 l 348 -443 z m -216 -971 c 505 363 1356 520 2211 513 c 934 -8 1852 -209 2313 -550 l 336 452 c -555 410 -1602 652 -2645 660 c -961 8 -1936 -181 -2543 -618 l 328 -457 z m -1406 15816 c 1589 307 2996 481 4403 514 c 1410 32 2827 -75 4436 -330 l 88 556 c -1642 260 -3091 369 -4535 336 c -1447 -34 -2883 -210 -4498 -522 l 106 -554 z m 26954 -12765 c -91 -57 -174 -81 -246 -79 c -57 2 -110 22 -152 56 c -46 36 -81 87 -101 146 c -24 72 -26 158 1 248 c 71 241 260 457 519 642 c 426 302 1029 511 1645 610 c 616 100 1236 89 1694 -47 c 247 -73 438 -180 538 -321 l 459 326 c -178 251 -473 427 -838 536 c -537 159 -1247 174 -1941 62 c -695 -113 -1385 -354 -1883 -708 c -358 -254 -623 -569 -733 -941 c -61 -205 -54 -408 6 -585 c 55 -165 154 -308 285 -411 c 134 -105 300 -170 486 -175 c 178 -6 370 44 563 167 l -302 474 z m -15413 717 c -128 315 -400 593 -786 834 c -1172 733 -3515 1177 -5976 1266 c -2452 88 -5038 -174 -6709 -852 c -768 -312 -1355 -716 -1670 -1221 l 478 -298 c 248 397 743 728 1403 996 c 1598 649 4097 898 6478 812 c 2371 -85 4609 -500 5698 -1181 c 286 -178 481 -369 562 -568 l 522 212 z m 372 1317 c -109 187 -262 363 -453 527 c -1151 983 -3844 1582 -6681 1674 c -2826 93 -5817 -313 -7584 -1334 c -420 -244 -775 -523 -1047 -841 l 428 -366 c 229 267 534 507 902 719 c 1672 967 4549 1349 7283 1260 c 2722 -89 5280 -639 6333 -1540 c 143 -122 255 -250 331 -381 l 488 282 z m -252 14162 c -130 222 -314 431 -544 625 c -1141 961 -3484 1548 -5946 1650 c -2454 102 -5045 -275 -6700 -1242 c -445 -260 -826 -566 -1124 -919 l 430 -362 c 252 299 584 563 979 793 c 1559 912 4035 1266 6393 1168 c 2349 -97 4561 -638 5606 -1518 c 178 -150 320 -310 419 -480 l 487 285 z m 5113 -38706 c 104 -268 -637 -1313 -313 -2441 c 474 -1646 2221 -2210 3864 -1334 c 486 259 1361 980 1551 1471 c -47 37 -133 98 -181 141 c -161 147 -73 23 -170 220 c 273 -118 257 -190 537 -253 c 381 -85 190 -107 406 -316 c 183 -176 835 -327 1165 -296 c 1724 159 3833 2515 3310 4655 c 0 1 -341 844 209 671 c 122 -38 114 -88 197 -150 c 953 509 1857 2042 303 2668 c -645 260 -823 104 -1441 186 c -59 -382 -134 -482 -322 -729 c 58 411 265 463 236 972 c -19 331 -286 749 -210 983 c 193 -44 253 -289 310 -530 c 827 109 1054 752 1319 1657 c 256 873 281 1783 132 2722 c -180 1136 -798 1748 -1374 2336 c -424 431 -670 938 -672 1610 c -9 2124 1220 2712 2442 3554 c 547 376 1098 832 1167 1795 c 105 1467 -718 1947 -737 2214 c 20 4 42 19 113 -3 c 385 -119 894 -1188 959 -1847 c 44 -447 -21 -892 -183 -1283 c -629 -1517 -2276 -1437 -2984 -3037 c -807 -1825 190 -2468 761 -3147 c 520 -619 811 -991 1023 -2019 c 349 -1694 -44 -3833 -997 -4785 c 170 -116 1595 -366 1557 -1625 c -24 -834 -588 -1420 -1264 -1772 l -107 -64 c -7 -4 -23 -15 -34 -24 c 387 -1675 -334 -3236 -1177 -4054 c -379 -368 -1137 -887 -1665 -1093 c -1170 -457 -1731 105 -2220 251 c -197 -196 -175 -244 -392 -452 c -515 -492 -694 -729 -1417 -1116 c -2297 -1229 -4910 469 -4248 3131 c 72 291 275 1057 547 1133 z m -1537 8388 c -570 -9 -712 57 -1196 -197 c -1446 -762 -2406 -3077 -1122 -4607 c 850 -1013 1487 -604 1886 -751 c -528 -109 -812 -271 -1401 -56 c -2792 1016 -1409 6460 1768 6170 c -177 1594 345 2717 1769 2924 c 2864 416 2729 -1163 3040 -1579 c 158 400 539 667 1119 518 c 689 -177 694 -679 846 -859 c 826 128 712 1033 450 1699 -206,521 -597,1001 -777,1702 -376,1463 307,2863 1104,3606 1895,1763 3800,884 5241,2184 530,478 674,776 755,1739 249,-833 -82,-1518 -504,-1931 -348,-340 -1020,-823 -1666,-976 -888,-211 -1298,-135 -2153,-498 -1219,-518 -2174,-1539 -2334,-2895 -208,-1755 1321,-2469 1021,-4113 -201,-1101 -1218,-1209 -1462,-995 -231,221 5,1236 -1024,1072 -685,-109 -461,-1192 -943,-975 -259,123 -201,654 -283,916 -87,278 -282,632 -430,753 -424,347 -1309,394 -1969,270 -657,-124 -1086,-449 -1359,-949 -291,-535 -368,-1270 -199,-1874 197,194 403,384 787,481 -92,-242 -417,-121 -792,-712 -264,-416 -177,-760 -329,-1128 -21,21 -86,-6 -78,273 2,73 39,237 56,304 46,175 123,346 179,484zm-215 -5314c351,411 173,436 111,380 -1595,-1134 -2717,-3830 -536,-4390 716,-184 1547,71 2497,983 350,337 37,433 -106,297 -824,-791 -1701,-994 -2280,-846 -1533,394 -854,2747 314,3576z"
    stroke="#FF0000" stroke-width="0.1" fill="url(#gold-gradient)" />
</svg>